# This file uses centimeters as units for non-parametric coordinates.

mtllib BenchPlanks.mtl
g default
v 0.218112 2.826242 1.312652
v 0.348150 2.552797 1.312652
v 0.324947 2.877048 1.312652
v 0.454985 2.603603 1.312652
v 0.324947 2.877048 -1.473395
v 0.454985 2.603603 -1.473395
v 0.218112 2.826242 -1.473395
v 0.348150 2.552797 -1.473395
vt 0.815657 0.024617
vt 0.859583 0.024766
vt 0.857147 0.020798
vt 0.812046 0.020632
vt 0.860728 0.430123
vt 0.815812 0.431297
vt 0.863063 0.423562
vt 0.819312 0.424684
vn 0.000000 0.000000 1.000000
vn 0.000000 0.000000 1.000000
vn 0.000000 0.000000 1.000000
vn 0.000000 0.000000 1.000000
vn 0.903083 0.429466 0.000000
vn 0.903083 0.429466 0.000000
vn 0.903083 0.429466 0.000000
vn 0.903083 0.429466 0.000000
vn 0.000000 0.000000 -1.000000
vn 0.000000 0.000000 -1.000000
vn 0.000000 0.000000 -1.000000
vn 0.000000 0.000000 -1.000000
vn -0.903083 -0.429466 0.000000
vn -0.903083 -0.429466 0.000000
vn -0.903083 -0.429466 0.000000
vn -0.903083 -0.429466 0.000000
vn 0.429465 -0.903083 0.000000
vn 0.429465 -0.903083 0.000000
vn 0.429465 -0.903083 0.000000
vn 0.429465 -0.903083 0.000000
vn -0.429465 0.903083 0.000000
vn -0.429465 0.903083 0.000000
vn -0.429465 0.903083 0.000000
vn -0.429465 0.903083 0.000000
s off
g WoodPiece0 Bench
usemtl lambert2SG
f 1/1/1 2/2/2 4/3/3 3/4/4
f 3/4/5 4/3/6 6/5/7 5/6/8
f 5/6/9 6/5/10 8/7/11 7/8/12
f 7/8/13 8/7/14 2/2/15 1/1/16
f 2/2/17 8/7/18 6/5/19 4/3/20
f 7/8/21 1/1/22 3/4/23 5/6/24
g default
v 0.218112 2.826242 1.312652
v 0.348150 2.552797 1.312652
v 0.324947 2.877048 1.312652
v 0.454985 2.603603 1.312652
v 0.324947 2.877048 -1.473395
v 0.454985 2.603603 -1.473395
v 0.218112 2.826242 -1.473395
v 0.348150 2.552797 -1.473395
vt 0.815657 0.024617
vt 0.859583 0.024766
vt 0.857147 0.020798
vt 0.812046 0.020632
vt 0.860728 0.430123
vt 0.815812 0.431297
vt 0.863063 0.423562
vt 0.819312 0.424684
vn 0.000000 0.000000 1.000000
vn 0.000000 0.000000 1.000000
vn 0.000000 0.000000 1.000000
vn 0.000000 0.000000 1.000000
vn 0.903083 0.429466 0.000000
vn 0.903083 0.429466 0.000000
vn 0.903083 0.429466 0.000000
vn 0.903083 0.429466 0.000000
vn 0.000000 0.000000 -1.000000
vn 0.000000 0.000000 -1.000000
vn 0.000000 0.000000 -1.000000
vn 0.000000 0.000000 -1.000000
vn -0.903083 -0.429466 0.000000
vn -0.903083 -0.429466 0.000000
vn -0.903083 -0.429466 0.000000
vn -0.903083 -0.429466 0.000000
vn 0.429465 -0.903083 0.000000
vn 0.429465 -0.903083 0.000000
vn 0.429465 -0.903083 0.000000
vn 0.429465 -0.903083 0.000000
vn -0.429465 0.903083 0.000000
vn -0.429465 0.903083 0.000000
vn -0.429465 0.903083 0.000000
vn -0.429465 0.903083 0.000000
s off
g WoodPiece0 Bench
f 9/9/25 10/10/26 12/11/27 11/12/28
f 11/12/29 12/11/30 14/13/31 13/14/32
f 13/14/33 14/13/34 16/15/35 15/16/36
f 15/16/37 16/15/38 10/10/39 9/9/40
f 10/10/41 16/15/42 14/13/43 12/11/44
f 15/16/45 9/9/46 11/12/47 13/14/48
g default
v 0.382176 2.481249 1.312652
v 0.512214 2.207803 1.312652
v 0.489010 2.532054 1.312652
v 0.619049 2.258609 1.312652
v 0.489010 2.532054 -1.473395
v 0.619049 2.258609 -1.473395
v 0.382176 2.481249 -1.473395
v 0.512214 2.207803 -1.473395
vt 0.875378 0.010549
vt 0.920518 0.010919
vt 0.919526 0.006825
vt 0.873190 0.006433
vt 0.920973 0.429137
vt 0.874819 0.430122
vt 0.921924 0.422410
vt 0.876957 0.423349
vn -0.000000 0.000000 1.000000
vn -0.000000 0.000000 1.000000
vn -0.000000 0.000000 1.000000
vn -0.000000 0.000000 1.000000
vn 0.903083 0.429466 0.000000
vn 0.903083 0.429466 0.000000
vn 0.903083 0.429466 0.000000
vn 0.903083 0.429466 0.000000
vn 0.000000 0.000000 -1.000000
vn 0.000000 0.000000 -1.000000
vn 0.000000 0.000000 -1.000000
vn 0.000000 0.000000 -1.000000
vn -0.903083 -0.429466 0.000000
vn -0.903083 -0.429466 0.000000
vn -0.903083 -0.429466 0.000000
vn -0.903083 -0.429466 0.000000
vn 0.429467 -0.903083 0.000000
vn 0.429467 -0.903083 0.000000
vn 0.429467 -0.903083 0.000000
vn 0.429467 -0.903083 0.000000
vn -0.429465 0.903083 0.000000
vn -0.429465 0.903083 0.000000
vn -0.429465 0.903083 0.000000
vn -0.429465 0.903083 0.000000
s off
g Bench WoodPiece1
usemtl lambert2SG
f 17/17/49 18/18/50 20/19/51 19/20/52
f 19/20/53 20/19/54 22/21/55 21/22/56
f 21/22/57 22/21/58 24/23/59 23/24/60
f 23/24/61 24/23/62 18/18/63 17/17/64
f 18/18/65 24/23/66 22/21/67 20/19/68
f 23/24/69 17/17/70 19/20/71 21/22/72
g default
v 0.553861 2.120229 1.312652
v 0.683899 1.846784 1.312652
v 0.660695 2.171035 1.312652
v 0.790733 1.897590 1.312652
v 0.660695 2.171035 -1.473395
v 0.790733 1.897590 -1.473395
v 0.553860 2.120229 -1.473395
v 0.683899 1.846784 -1.473395
vt 0.991598 0.437265
vt 0.947425 0.431420
vt 0.946912 0.435426
vt 0.992142 0.435319
vt 0.941235 0.021463
vt 0.986275 0.020014
vt 0.941891 0.028019
vt 0.985680 0.020666
vn 0.000000 0.000000 1.000000
vn 0.000000 0.000000 1.000000
vn 0.000000 0.000000 1.000000
vn 0.000000 0.000000 1.000000
vn 0.903083 0.429466 0.000000
vn 0.903083 0.429466 0.000000
vn 0.903083 0.429466 0.000000
vn 0.903083 0.429466 0.000000
vn 0.000000 0.000000 -1.000000
vn 0.000000 0.000000 -1.000000
vn 0.000000 0.000000 -1.000000
vn 0.000000 0.000000 -1.000000
vn -0.903083 -0.429466 0.000000
vn -0.903083 -0.429466 0.000000
vn -0.903083 -0.429466 0.000000
vn -0.903083 -0.429466 0.000000
vn 0.429465 -0.903083 0.000000
vn 0.429465 -0.903083 0.000000
vn 0.429465 -0.903083 0.000000
vn 0.429465 -0.903083 0.000000
vn -0.429465 0.903083 0.000000
vn -0.429465 0.903083 0.000000
vn -0.429465 0.903083 0.000000
vn -0.429465 0.903083 0.000000
s off
g Bench WoodPiece2
usemtl lambert2SG
f 25/25/73 26/26/74 28/27/75 27/28/76
f 27/28/77 28/27/78 30/29/79 29/30/80
f 29/30/81 30/29/82 32/31/83 31/32/84
f 31/32/85 32/31/86 26/26/87 25/25/88
f 26/26/89 32/31/90 30/29/91 28/27/92
f 31/32/93 25/25/94 27/28/95 29/30/96
g default
v 0.863039 1.573745 1.312652
v 1.163774 1.538520 1.312652
v 0.876801 1.691241 1.312652
v 1.177536 1.656016 1.312652
v 0.876801 1.691241 -1.473395
v 1.177536 1.656016 -1.473395
v 0.863039 1.573745 -1.473395
v 1.163774 1.538520 -1.473395
vt 0.224460 0.278349
vt 0.236722 0.223099
vt 0.238986 0.278267
vt 0.233819 0.223140
vt 0.724314 0.280191
vt 0.108033 0.524374
vt 0.720982 0.263627
vt 0.721161 0.263670
vt 0.111670 0.510031
vt 0.240204 0.261668
vt 0.726845 0.187259
vt 0.113076 0.514809
vt 0.088457 0.523682
vt 0.240238 0.185065
vt 0.092321 0.535997
vt 0.726202 0.225070
vt 0.106777 0.519713
vt 0.723102 0.225336
vt 0.093331 0.530024
vt 0.231653 0.261696
vt 0.221492 0.295209
vt 0.089585 0.517559
vt 0.744419 0.296971
vt 0.739699 0.280148
vn 0.000000 0.000000 1.000000
vn 0.000000 0.000000 1.000000
vn 0.000000 0.000000 1.000000
vn 0.000000 0.000000 1.000000
vn 0.116335 0.993210 0.000000
vn 0.116335 0.993210 0.000000
vn 0.116335 0.993210 0.000000
vn 0.116335 0.993210 0.000000
vn 0.000000 0.000000 -1.000000
vn 0.000000 0.000000 -1.000000
vn 0.000000 0.000000 -1.000000
vn 0.000000 0.000000 -1.000000
vn -0.116336 -0.993210 0.000000
vn -0.116336 -0.993210 0.000000
vn -0.116336 -0.993210 0.000000
vn -0.116336 -0.993210 0.000000
vn 0.993210 -0.116336 0.000000
vn 0.993210 -0.116336 0.000000
vn 0.993210 -0.116336 0.000000
vn 0.993210 -0.116336 0.000000
vn -0.993210 0.116335 0.000000
vn -0.993210 0.116335 0.000000
vn -0.993210 0.116335 0.000000
vn -0.993210 0.116335 0.000000
s off
g Bench WoodPiece3
usemtl lambert2SG
f 33/51/97 34/54/98 36/45/99 35/47/100
f 35/36/101 36/46/102 38/43/103 37/48/104
f 37/38/105 38/44/106 40/41/107 39/49/108
f 39/40/109 40/50/110 34/34/111 33/52/112
f 34/42/113 40/39/114 38/37/115 36/35/116
f 39/56/117 33/33/118 35/53/119 37/55/120
g default
v 1.247923 1.535203 1.312652
v 1.550714 1.535203 1.312652
v 1.247923 1.653503 1.312652
v 1.550714 1.653503 1.312652
v 1.247923 1.653503 -1.473395
v 1.550714 1.653503 -1.473395
v 1.247923 1.535203 -1.473395
v 1.550714 1.535203 -1.473395
vt 0.215380 0.144524
vt 0.226355 0.077681
vt 0.231392 0.144436
vt 0.218476 0.077749
vt 0.740145 0.146931
vt 0.981720 0.031552
vt 0.737551 0.125956
vt 0.736247 0.126204
vt 0.232431 0.123406
vt 0.760908 0.317245
vt 0.762339 0.168118
vt 0.752616 0.146887
vt 0.764164 0.328015
vt 0.226924 0.032793
vt 0.761648 0.311046
vt 0.764814 0.322063
vt 0.224609 0.123458
vt 0.207304 0.165810
vt 0.741958 0.035863
vt 0.989112 0.020429
vt 0.987511 0.013990
vt 0.743011 0.080804
vt 0.741643 0.080444
vt 0.980316 0.025368
vn 0.000000 0.000000 1.000000
vn 0.000000 0.000000 1.000000
vn 0.000000 0.000000 1.000000
vn 0.000000 0.000000 1.000000
vn 0.000000 1.000000 0.000000
vn 0.000000 1.000000 0.000000
vn 0.000000 1.000000 0.000000
vn 0.000000 1.000000 0.000000
vn 0.000000 0.000000 -1.000000
vn 0.000000 0.000000 -1.000000
vn 0.000000 0.000000 -1.000000
vn 0.000000 0.000000 -1.000000
vn 0.000000 -1.000000 0.000000
vn 0.000000 -1.000000 0.000000
vn 0.000000 -1.000000 0.000000
vn 0.000000 -1.000000 0.000000
vn 1.000000 0.000000 0.000000
vn 1.000000 0.000000 0.000000
vn 1.000000 0.000000 0.000000
vn 1.000000 0.000000 0.000000
vn -1.000000 0.000000 0.000000
vn -1.000000 0.000000 0.000000
vn -1.000000 0.000000 0.000000
vn -1.000000 0.000000 0.000000
s off
g Bench WoodPiece4
usemtl lambert2SG
f 41/72/121 42/71/122 44/66/123 43/69/124
f 43/60/125 44/70/126 46/75/127 45/79/128
f 45/62/129 46/76/130 48/77/131 47/80/132
f 47/64/133 48/78/134 42/58/135 41/73/136
f 42/65/137 48/63/138 46/61/139 44/59/140
f 47/68/141 41/57/142 43/74/143 45/67/144
g default
v 1.621168 1.540214 1.312652
v 1.922542 1.569469 1.312652
v 1.609738 1.657960 1.312652
v 1.609738 1.657960 -1.473395
v 1.621168 1.540214 -1.473395
v 1.922542 1.569469 -1.473395
v 1.907089 1.663056 1.312652
v 1.888178 1.678620 1.312652
v 1.864018 1.682644 1.312652
v 1.915684 1.640121 1.312652
v 1.915684 1.640121 -1.473395
v 1.864018 1.682644 -1.473395
v 1.888178 1.678620 -1.473395
v 1.907089 1.663056 -1.473395
vt 0.047485 0.051271
vt 0.173538 0.034637
vt 0.043358 0.510449
vt 0.127532 0.524734
vt 0.131197 0.496337
vt 0.181969 0.500775
vt 0.178737 0.055993
vt 0.131217 0.057034
vt 0.183087 0.514230
vt 0.039300 0.041156
vt 0.177657 0.035879
vt 0.039370 0.510108
vt 0.180591 0.039107
vt 0.035059 0.512480
vt 0.014094 0.518009
vt 0.182287 0.518838
vt 0.179327 0.522297
vt 0.175001 0.523644
vt 0.178713 0.497936
vt 0.047619 0.490700
vt 0.127133 0.502182
vt 0.043103 0.035674
vt 0.181551 0.043420
vt 0.047014 0.035941
vt 0.087825 0.050180
vt 0.181114 0.056024
vt 0.129625 0.054939
vt 0.128964 0.033817
vt 0.043324 0.035750
vt 0.087690 0.492100
vt 0.039359 0.034932
vt 0.047022 0.510202
vt 0.039236 0.511097
vt 0.043089 0.509157
vt 0.035096 0.040074
vt 0.014642 0.037130
vt 0.034220 0.513739
vt 0.034892 0.040471
vt 0.088351 0.051878
vt 0.087738 0.500114
vt 0.130342 0.493526
vt 0.130911 0.057269
vn -0.096620 0.995321 0.000000
vn -0.073998 0.997258 0.000000
vn -0.073998 0.997258 0.000000
vn -0.096620 0.995321 0.000000
vn 0.096620 -0.995321 0.000000
vn 0.096620 -0.995321 0.000000
vn 0.096620 -0.995321 0.000000
vn 0.096620 -0.995321 0.000000
vn 0.995321 0.096621 0.000000
vn 0.995321 0.096621 0.000000
vn 0.986639 0.162920 0.000000
vn 0.986639 0.162920 0.000000
vn -0.995321 -0.096619 0.000000
vn -0.995321 -0.096619 0.000000
vn -0.995321 -0.096619 0.000000
vn -0.995321 -0.096619 0.000000
vn 0.164275 0.986415 0.000000
vn 0.164275 0.986415 0.000000
vn 0.635476 0.772120 0.000000
vn 0.635476 0.772120 0.000000
vn 0.635476 0.772120 0.000000
vn 0.635476 0.772120 0.000000
vn 0.936401 0.350931 0.000000
vn 0.936401 0.350931 0.000000
vn -0.000000 0.000000 1.000000
vn -0.000000 0.000000 1.000000
vn -0.000000 0.000000 1.000000
vn -0.000000 0.000000 1.000000
vn -0.000000 0.000000 1.000000
vn -0.000000 0.000000 1.000000
vn -0.000000 0.000000 1.000000
vn -0.000000 0.000000 -1.000000
vn -0.000000 0.000000 -1.000000
vn -0.000000 0.000000 -1.000000
vn -0.000000 0.000000 -1.000000
vn -0.000000 0.000000 -1.000000
vn -0.000000 0.000000 -1.000000
vn -0.000000 0.000000 -1.000000
s 1
g Bench WoodPiece5
usemtl lambert2SG
f 51/81/145 57/105/146 60/110/147 52/100/148
s off
f 53/85/149 54/99/150 50/87/151 49/122/152
s 2
f 50/118/153 54/117/154 59/95/155 58/116/156
s off
f 53/121/157 49/88/158 51/119/159 52/120/160
s 1
f 57/109/146 56/104/161 61/112/162 60/83/147
s off
f 56/111/163 55/102/164 62/114/165 61/92/166
s 2
f 55/115/167 58/90/156 59/113/155 62/94/168
s off
f 55/93/169 56/91/170 57/82/171 51/108/172 49/107/173 50/106/174 58/103/175
f 59/89/176 54/86/177 53/101/178 52/84/179 60/98/180 61/97/181 62/96/182
